<?xml version="1.0" encoding="UTF-8"?>
<svg id="Layer_1" data-name="Layer 1" xmlns="http://www.w3.org/2000/svg" viewBox="0 0 679.34 283.84">
  <defs>
    <style>
      .cls-1 {
        font-family: Poppins-Bold, Poppins;
        font-size: 56.79px;
        font-weight: 700;
      }

      .cls-1, .cls-2 {
        fill: #f9bd21;
      }

      .cls-3 {
        fill: #ef5024;
      }
    </style>
  </defs>
  <text class="cls-1" transform="translate(291.85 106.46)"><tspan x="0" y="0">Community</tspan><tspan x="0" y="58.15">Composting</tspan><tspan x="0" y="116.3">Counts</tspan></text>
  <g>
    <rect class="cls-3" x="43.47" y="34.24" width="212.33" height="212.33" rx="33.98" ry="33.98"/>
    <g>
      <path class="cls-2" d="M155.56,182.12c-7.54-6.76-9.22-15.11-9.17-25.11-4.73,8.21-9.56,16.92-18.11,21.37-2.55,1.33-5.01,2.42-7.8,3.28-11.14,3.42-25.39,6.82-36.93,6.32l-6.78-.3c-3.61-.16-7.03-.13-10.6.52l-3.84.46c-.9.11-1.95-.36-2.41-1.14l-2.18-3.71c-.6-1.02-.39-2.2.79-2.82l4.71-2.47c8.27-5.2,16.24-7.17,25.68-9.26,10.3-2.28,20.85-4.96,28.33-12.69,6.36-6.57,8.95-15,11.86-23.35,4.16-11.97,8.85-25.24,20.72-31.35l5.37-2.76c6-3.09,8.32-8.64,10.23-15.04.2-.67.68-1.36,1.26-1.58.64-.24,1.35-.03,2.03.27,2.35,1.03,4.63,2.01,6.78,3.35,1.24.77,1.59,1.98.88,3.3-1.99,3.71-5.42,10.49-4.37,14.2l1.19,4.21c1.29,4.55,2.17,9.06,1.78,13.79-.28,3.48-.83,6.77-1.54,10.19l-2.17,10.44c-1.18,5.66-.47,11.33,1.51,16.75,1.42,3.87,4.02,6.96,7.43,9.24,7.07,4.73,13.82,7.29,22.36,8.32l11.48,1.38,10.39,1.77c4.39,1.1,8.33,2.93,11.88,5.71,1.21.95,2.49,1.6,3.9,2.18,1.17.48,1.88,1.61,1.57,2.84l-.96,3.83c-.22.88-1.49,1.44-2.37,1.63-5.15,1.07-10.13,2.02-15.4,2.34-13.41.82-26.58-.99-39.53-4.45l-12.31-3.28c-5.84-1.56-11.15-4.47-15.67-8.38Z"/>
      <path class="cls-2" d="M194.66,155.78l-8.54,4.22c-3,1.48-6.25,1.91-9.71,1.77l-1.77-5.33c-1.7-5.12-1.71-10.56-.76-15.81,3.71.13,7.24-.19,10.59-1.45l7.86-2.96c11.9-4.29,24.67-4.79,36.11.92,2.33,1.16,4.65,1.97,7.23,2.25,2.21.25,3.47,1.95,3.47,4.21,0,.57-.14,1.39-.48,1.81s-1.12.57-1.73.6l-7.75.37-11.23,1.02c-8.29,1.25-15.93,4.23-23.27,8.37Z"/>
      <path class="cls-2" d="M124.89,138.46c-1.33,4.23-3.25,7.67-5.55,11.14-2.25,3.39-4.78,6.39-8.02,8.96-6.48.63-14.46-1.43-19.48-5.67-6.2-5.24-8.38-13.83-4.84-21.2,1.28-2.67,3.4-4.72,5.87-6.29l5.5-3.49c2.03-1.29,3.07-3.48,2.79-5.85-.26-2.16,4.5-1.3,5.82.46.9,1.19.44,3.3-.11,4.6-1.73,4.15-5.75,5.4-8.08,8.58-1.47,2.01-1.94,4.62-1.08,6.93,1.39,3.76,4.71,6.24,8.62,6.95,5.73,1.03,10.84-1.37,15.81-3.79l2.75-1.34Z"/>
    </g>
  </g>
</svg>