<?xml version="1.0" encoding="UTF-8"?>
<svg id="Layer_1" data-name="Layer 1" xmlns="http://www.w3.org/2000/svg" viewBox="0 0 1080 1080">
  <defs>
    <style>
      .cls-1 {
        fill: #9aca3c;
      }
    </style>
  </defs>
  <path class="cls-1" d="M682.27,177.12l-9.8-3.78,8.48-22.02,9.94,3.83c2.54,1.02,4.17,2.86,4.89,5.53.71,2.67.4,5.77-.96,9.29-1.31,3.4-3.05,5.7-5.22,6.9-2.17,1.21-4.62,1.28-7.33.24ZM905,696.28l-12.23-5.63c-6.01-2.77-10.86-3.91-14.53-3.43-3.68.48-6.37,2.6-8.1,6.34-1.67,3.62-1.51,6.95.46,10,1.97,3.04,5.88,5.93,11.72,8.66l11.94,5.5c6.2,2.85,11.22,4.1,15.05,3.72,3.83-.37,6.61-2.41,8.32-6.13,1.69-3.68,1.49-7.08-.61-10.18-2.1-3.1-6.11-6.06-12.03-8.86ZM210.51,706.06c2-3.12,2.13-6.55.38-10.28-1.69-3.61-4.34-5.64-7.94-6.09s-8.33.67-14.18,3.37l-11.91,5.58c-6.18,2.9-10.37,5.93-12.55,9.1-2.19,3.17-2.41,6.6-.68,10.31,1.72,3.67,4.45,5.7,8.17,6.1,3.73.4,8.57-.76,14.53-3.48l12.19-5.72c5.99-2.81,9.99-5.77,11.99-8.89ZM520.69,146.34c-.54-6.81-1.9-11.79-4.1-14.95-2.2-3.16-5.33-4.58-9.41-4.26-4.04.32-6.9,2.15-8.59,5.5-1.68,3.35-2.3,8.29-1.86,14.82l1.06,13.42c.52,6.6,1.89,11.38,4.1,14.35,2.22,2.97,5.38,4.29,9.49,3.97,3.97-.31,6.8-2.07,8.5-5.28,1.69-3.21,2.3-8.03,1.83-14.46l-1.03-13.11ZM734.39,234.34c3.37,2.13,6.69,2.43,9.97.87,3.28-1.55,6.66-5.04,10.14-10.46l7.04-11.11c3.66-5.77,5.55-10.57,5.7-14.42.14-3.85-1.51-6.87-4.97-9.06-3.42-2.17-6.81-2.42-10.17-.75-3.36,1.67-6.82,5.25-10.38,10.74l-7.21,11.37c-3.54,5.59-5.32,10.24-5.33,13.94-.01,3.71,1.72,6.66,5.21,8.87ZM1057.43,655.15c-4.07,18.62-45.1,27.06-51.28,45.22-6.13,18.02,21.27,49.73,13.07,67.11-8.1,17.18-49.97,16.22-60.1,32.6-9.97,16.12,9.64,53.16-2.29,68.33-11.69,14.86-52.29,4.6-65.86,18.39-13.57,13.79-2.65,54.22-17.32,66.15-14.98,12.17-52.33-6.83-68.28,3.4-16.21,10.39-14.57,52.24-31.61,60.62-17.24,8.48-49.4-18.4-67.31-11.98-18.06,6.47-25.83,47.63-44.38,52.01-18.64,4.4-44-28.97-62.95-26.69-18.99,2.28-35.71,40.7-54.82,40.86-19.11.16-36.45-37.99-55.47-39.96-18.98-1.97-43.79,31.8-62.51,27.71-18.62-4.07-27.06-45.1-45.22-51.28-18.02-6.13-49.73,21.27-67.11,13.07-17.18-8.1-16.22-49.97-32.6-60.1-16.12-9.97-53.16,9.64-68.33-2.29-14.86-11.69-4.6-52.29-18.39-65.86-13.79-13.57-54.22-2.65-66.15-17.32-12.17-14.98,6.83-52.33-3.4-68.28-10.39-16.21-52.24-14.57-60.62-31.61-8.48-17.24,18.4-49.4,11.98-67.31-6.47-18.06-47.63-25.83-52.01-44.38-4.4-18.64,28.97-44,26.69-62.95-2.28-18.99-40.7-35.71-40.86-54.82-.16-19.11,37.99-36.45,39.96-55.47,1.97-18.98-31.8-43.79-27.71-62.51,4.07-18.62,45.1-27.06,51.28-45.22,6.13-18.02-21.27-49.73-13.07-67.11,8.1-17.18,49.97-16.22,60.1-32.6,9.97-16.12-9.64-53.16,2.29-68.33,11.69-14.86,52.29-4.6,65.86-18.39,13.57-13.79,2.65-54.22,17.32-66.15,14.98-12.17,52.33,6.83,68.28-3.4,16.21-10.39,14.57-52.24,31.61-60.62,17.24-8.48,49.4,18.4,67.31,11.98,18.06-6.47,25.83-47.63,44.38-52.01,18.64-4.4,44,28.97,62.95,26.69,18.99-2.28,35.71-40.7,54.82-40.86,19.11-.16,36.45,37.99,55.47,39.96,18.98,1.97,43.79-31.8,62.51-27.71,18.62,4.07,27.06,45.1,45.22,51.28,18.02,6.13,49.73-21.27,67.11-13.07,17.18,8.1,16.22,49.97,32.6,60.1,16.12,9.97,53.16-9.64,68.33,2.29,14.86,11.69,4.6,52.29,18.39,65.86,13.79,13.57,54.22,2.65,66.15,17.32,12.17,14.98-6.83,52.33,3.4,68.28,10.39,16.21,52.24,14.57,60.62,31.61,8.48,17.24-18.4,49.4-11.98,67.31,6.47,18.06,47.63,25.83,52.01,44.38,4.4,18.64-28.97,44-26.69,62.95,2.28,18.99,40.7,35.71,40.86,54.82.16,19.11-37.99,36.45-39.96,55.47-1.97,18.98,31.8,43.79,27.71,62.51ZM933.44,372.22l-71.25,25.5,5.15,14.39,46.73-16.73-39.2,37.77,5.15,14.39,71.25-25.5-5.13-14.34-46.78,16.74,39.24-37.84-5.15-14.39ZM912.42,331.48l-66.56,36,7.27,13.44,66.56-36-7.27-13.44ZM868.89,288.76l-50.59,37.45,9.12,12.32,50.59-37.45,11.13,15.04,10.24-7.58-31.21-42.15-10.23,7.58,10.95,14.79ZM785.17,269.56c.11-2.6,1.66-5.5,4.65-8.68l-11.18-10.49c-3.48,3.72-5.68,7.71-6.58,12-.91,4.28-.58,8.53.98,12.75,1.56,4.21,4.12,8,7.68,11.34,5.26,4.93,10.68,7.48,16.28,7.64,5.59.16,10.64-2.16,15.15-6.96,4.1-4.37,6.26-9.12,6.47-14.24.22-5.12-1.46-11.17-5.01-18.17-1.85-4.21-2.81-7.49-2.87-9.85-.06-2.36.62-4.3,2.04-5.82,1.83-1.95,3.82-2.98,5.99-3.12,2.17-.13,4.22.72,6.17,2.54,2.07,1.94,3.02,4.11,2.86,6.49-.17,2.38-1.46,4.86-3.88,7.44l11.11,10.42c3.11-3.31,5.16-6.94,6.18-10.88,1.01-3.94.86-7.87-.45-11.79-1.31-3.92-3.67-7.46-7.05-10.64-5.08-4.77-10.59-7.28-16.53-7.56-5.94-.27-11.09,1.91-15.46,6.56-3.6,3.84-5.51,8.31-5.73,13.4-.22,5.09,1.46,11.29,5.03,18.57,1.87,4.08,2.84,7.24,2.91,9.47.07,2.23-.95,4.47-3.06,6.72-3.86,4.12-7.74,4.35-11.63.7-2.81-2.63-4.15-5.25-4.04-7.85ZM715.13,227.34c1.12,7.29,5.26,13.22,12.43,17.76,7.2,4.56,14.33,5.76,21.39,3.59,7.06-2.17,13.31-7.54,18.74-16.12l6.93-10.93c5.49-8.79,7.72-16.9,6.7-24.34-1.03-7.44-5.09-13.42-12.21-17.93-7.23-4.58-14.44-5.7-21.63-3.35-7.19,2.35-13.58,7.92-19.14,16.7l-6.93,10.93c-5.3,8.5-7.4,16.39-6.28,23.68ZM644.07,204.56l14.26,5.49,9.57-24.83,9.51,3.66c7.27,2.8,13.74,2.99,19.39.56,5.65-2.43,9.81-7.1,12.48-14.02,2.67-6.92,2.76-13.35.27-19.28-2.48-5.93-7.22-10.25-14.2-12.94l-24.06-9.27-27.21,70.62ZM555.62,188.45l15.13,2.14,2.87-20.28,3.03-31.44,7.69,53.64,10.29,1.46,22.27-49.4-5.81,31.04-2.87,20.28,15.18,2.15,10.6-74.93-19.76-2.8-21.77,52.2-6.48-56.19-19.76-2.8-10.61,74.93ZM481.58,149.53l1.02,12.9c.85,9.98,3.92,17.55,9.19,22.71,5.27,5.16,12.14,7.41,20.6,6.75,8.5-.67,14.92-3.99,19.26-9.96,4.34-5.97,6.12-14.02,5.32-24.14l-1.02-12.9c-.88-10.32-3.96-18.15-9.25-23.49-5.29-5.34-12.13-7.67-20.52-7.01-8.53.67-14.97,4.11-19.31,10.3-4.34,6.2-6.11,14.48-5.29,24.84ZM408.41,167.07l3.43,12.26c2.81,10.05,7.16,17.17,13.07,21.36,5.9,4.2,12.98,5.15,21.22,2.84,7.84-2.19,13.32-6.02,16.43-11.5,3.11-5.47,3.69-12.42,1.74-20.83l-14.72,4.11c1.18,5,1.3,8.64.36,10.94-.94,2.3-3.35,3.99-7.22,5.07-3.94,1.1-7.09.52-9.47-1.73-2.37-2.25-4.57-7-6.59-14.24l-3.85-13.77c-1.66-6.33-2.06-11.11-1.19-14.32.87-3.21,3.27-5.37,7.21-6.47,3.87-1.08,6.81-.85,8.8.7,2,1.55,3.78,4.87,5.35,9.97l14.77-4.13c-2.89-8.15-7.01-13.87-12.38-17.16-5.36-3.29-12.01-3.82-19.96-1.6-8.08,2.26-13.63,6.73-16.65,13.42-3.02,6.69-3.14,15.04-.34,25.06ZM358.65,195.65c-3.67,2.04-7.33,4.16-10.92,6.31-1.94,1.16-2.57,3.68-1.4,5.62.77,1.28,2.12,1.99,3.51,1.99.72,0,1.44-.19,2.1-.58,3.41-2.04,6.88-4.03,10.36-5.97l1.96,16.14c4.47-10.99,14.02-24.07,22.46-33.15-12.32,1.39-28.52,1.33-40.01-1.6l11.94,11.26ZM258.23,218.88l45.46,25.94,16.68,21.79,12.3-9.42-16.68-21.79-13.23-50.62-13.21,10.11,11.63,33.91-29.75-20.04-13.21,10.11ZM203.99,276.02l9.48,8.5,12.28-13.7,46.88,42,10.23-11.42-46.88-42,12.49-13.94-9.48-8.5-35,39.06ZM180.38,310.28l62.88,42.11,8.5-12.7-62.88-42.11-8.5,12.7ZM141.64,384.14l68.53,32.1,6.48-13.84-44.95-21.06,54.43.82,6.48-13.84-68.53-32.1-6.46,13.79,45,21.08-54.5-.79-6.48,13.84ZM119.05,463.31l50.52,12.42c7.77,1.91,14.22,1.29,19.35-1.85,5.13-3.15,8.66-8.66,10.59-16.53,1.9-7.74,1.34-14.18-1.7-19.31-3.04-5.13-8.37-8.68-15.99-10.62l-50.88-12.51-3.65,14.84,50.83,12.5c4.03,1.03,6.77,2.41,8.21,4.16,1.44,1.75,1.73,4.39.86,7.92s-2.36,5.75-4.47,6.66-5.26.85-9.43-.18l-50.58-12.44-3.67,14.94ZM111.9,565.07l75.66,1.88.38-15.28-20.47-.51-31.58.62,52.39-13.83.26-10.39-51.64-16.41,31.51,2.19,20.47.51.38-15.33-75.66-1.88-.49,19.95,54.36,15.59-55.07,12.93-.5,19.95ZM130.11,667.48l73.9-16.33-3.3-14.92-20,4.42-30.5,8.18,47.54-26-2.24-10.15-54.07-3.54,31.11-5.44,20-4.42-3.31-14.97-73.9,16.33,4.31,19.49,56.51,2.1-50.36,25.77,4.31,19.49ZM193.62,734.13l11.72-5.5c9.04-4.31,15.04-9.85,18.02-16.6,2.98-6.75,2.66-13.97-.94-21.66-3.62-7.72-8.99-12.56-16.11-14.52-7.12-1.96-15.28-.79-24.47,3.52l-11.72,5.49c-9.35,4.46-15.59,10.11-18.73,16.93-3.13,6.83-2.91,14.05.66,21.68,3.63,7.75,9.12,12.57,16.45,14.45,7.33,1.88,15.7.62,25.12-3.8ZM256.72,748.24c-4.82-6.56-10.35-10.33-16.57-11.3-6.22-.97-12.92.94-20.1,5.75l9.05,12.31c4.25-2.87,7.62-4.27,10.1-4.2,2.48.07,4.91,1.72,7.29,4.96,2.42,3.29,3,6.45,1.74,9.47-1.26,3.02-4.93,6.75-10.98,11.21l-11.51,8.47c-5.34,3.8-9.66,5.86-12.97,6.18-3.31.33-6.17-1.16-8.6-4.45-2.38-3.24-3.2-6.07-2.46-8.48.74-2.42,3.22-5.26,7.44-8.53l-9.08-12.35c-6.6,5.59-10.49,11.47-11.67,17.65s.68,12.59,5.56,19.23c4.97,6.76,11.12,10.36,18.45,10.82,7.33.46,15.18-2.39,23.55-8.55l10.26-7.54c8.4-6.18,13.52-12.77,15.36-19.78,1.84-7.01.22-13.96-4.85-20.85ZM342.51,742.19c110.85,109.07,289.14,107.63,398.21-3.23,109.07-110.85,107.63-289.14-3.23-398.21-110.85-109.07-289.14-107.63-398.21,3.23-109.07,110.85-107.63,289.14,3.23,398.21ZM618.25,917.06c-.44-2.22-2.58-3.66-4.81-3.23-55.5,10.9-113.76,9.21-168.47-4.89-55.46-14.29-105.72-40.26-149.48-77.22l14.42-7.54c-11.86-.29-27.47-4.61-38.95-9.28,5.66,11.03,11.32,26.21,12.65,38l6.31-15.16c44.77,37.89,96.22,64.51,153,79.14,31.62,8.14,64.39,12.23,97.17,12.23,25.15,0,50.31-2.41,74.92-7.24,2.22-.44,3.66-2.59,3.23-4.81ZM712.21,911.36c-1.95-4.89-5.18-8.52-9.7-10.88-4.52-2.36-10.84-3.47-18.95-3.34-4.49-.04-7.76-.5-9.81-1.38s-3.64-2.75-4.78-5.62c-2.09-5.25-.65-8.86,4.3-10.83,3.57-1.42,6.51-1.53,8.82-.32,2.31,1.21,4.27,3.84,5.88,7.89l14.25-5.67c-1.88-4.73-4.57-8.42-8.07-11.05-3.49-2.64-7.48-4.15-11.96-4.53-4.48-.38-8.99.33-13.53,2.14-6.7,2.67-11.31,6.5-13.83,11.49-2.52,5-2.57,10.55-.13,16.67,2.22,5.57,5.6,9.54,10.14,11.91,4.54,2.37,10.74,3.43,18.58,3.18,4.59.11,7.97.64,10.14,1.59,2.17.95,3.63,2.38,4.4,4.32.99,2.48,1.08,4.73.28,6.74-.8,2.02-2.44,3.52-4.92,4.5-2.64,1.05-5,.99-7.09-.17-2.09-1.17-3.78-3.39-5.09-6.67l-14.15,5.63c1.68,4.22,4.09,7.62,7.23,10.21,3.14,2.59,6.76,4.12,10.86,4.6,4.1.47,8.31-.15,12.63-1.86,6.47-2.58,11.09-6.5,13.87-11.76,2.77-5.26,2.98-10.86.62-16.78ZM788.98,889.9l-6.76-10.79-15.59,9.77-33.42-53.34-12.99,8.14,33.43,53.34-15.86,9.94,6.76,10.79,44.44-27.85ZM850.66,836.14l-51.61-55.35-11.18,10.42,33.85,36.3-50.2-21.06-11.17,10.42,51.61,55.35,11.14-10.39-33.89-36.34,50.27,21.06,11.18-10.42ZM901.24,771.35l-42.16-30.49c-6.49-4.69-12.7-6.54-18.63-5.55-5.93.99-11.27,4.77-16.03,11.34-4.67,6.46-6.56,12.64-5.68,18.54.89,5.9,4.5,11.18,10.83,15.85l42.46,30.7,8.96-12.38-42.41-30.67c-3.35-2.46-5.37-4.78-6.05-6.94-.68-2.16.04-4.71,2.17-7.66,2.13-2.95,4.35-4.45,6.65-4.49,2.3-.05,5.19,1.19,8.67,3.71l42.2,30.52,9.01-12.47ZM929.69,698.77c-3.29-6.82-9.65-12.4-19.1-16.75l-11.76-5.41c-9.13-4.13-17.23-5.15-24.31-3.07-7.08,2.08-12.4,6.98-15.95,14.69-3.56,7.74-3.8,14.97-.71,21.67,3.09,6.71,9.25,12.18,18.47,16.43l11.75,5.41c9.44,4.27,17.78,5.4,25.02,3.39,7.24-2.01,12.62-6.84,16.14-14.48,3.58-7.77,3.73-15.07.44-21.89ZM952.63,622.03c-4.37-5.9-11.61-10.07-21.72-12.5l-12.38-2.98c-10.14-2.44-18.48-2.11-25.02,1-6.54,3.11-10.81,8.83-12.82,17.15-1.91,7.92-1.23,14.57,2.04,19.95,3.27,5.38,9.05,9.27,17.35,11.66l3.58-14.86c-4.94-1.4-8.18-3.08-9.73-5.02-1.55-1.94-1.85-4.86-.91-8.77.96-3.97,3-6.45,6.12-7.43,3.12-.98,8.34-.58,15.65,1.17l13.9,3.35c6.34,1.63,10.71,3.61,13.09,5.93,2.38,2.32,3.09,5.47,2.14,9.44-.94,3.91-2.57,6.36-4.9,7.35-2.32.99-6.1.93-11.32-.18l-3.59,14.91c8.53,1.45,15.53.63,21.01-2.45,5.48-3.08,9.19-8.63,11.12-16.65,1.96-8.15.76-15.18-3.61-21.08ZM938.01,554.09c.37-4.19.71-8.4.94-12.58.13-2.26-1.6-4.19-3.86-4.32-2.26-.13-4.19,1.6-4.32,3.86-.22,3.96-.54,7.95-.89,11.93l-14.45-7.46c6.58,9.87,12.02,25.13,14.79,37.21,5.78-10.97,14.94-24.33,23.82-32.19l-16.05,3.55ZM963.85,478.91c-1.28-8.64-5.04-14.8-11.28-18.48-6.24-3.68-14.52-4.76-24.83-3.23l-13.47,2c-10.16,1.65-17.55,5.25-22.17,10.8-4.62,5.55-6.3,12.63-5.02,21.24.75,5.04,2.23,9.56,4.45,13.55,2.22,4,5.12,7.22,8.71,9.66l30.9-4.58-3.82-25.76-11.42,1.69,1.57,10.59-13.73,2.04-1.12-1.2c-1.48-1.67-2.43-4-2.88-6.98-.69-4.66.36-8.24,3.16-10.74,2.8-2.5,7.61-4.26,14.43-5.27l13.57-2.01c6.52-.9,11.41-.64,14.67.77,3.26,1.41,5.19,4.15,5.79,8.23.5,3.36,0,5.96-1.5,7.79-1.5,1.83-4.6,3.31-9.3,4.43l2.18,14.7c8.47-1.92,14.41-5.25,17.8-9.97,3.4-4.73,4.49-11.15,3.29-19.27ZM445.56,539.57c59.49,23.42,87.98,96.8,60.23,154.1-14.66,30.26-52.35,48.98,13.28,57.8,48.77,6.56,61.04-26.85,97.14-43,46.25-20.7,105.83-8.17,110.03-85-103.48,3.64-173.47-112.89-95.85-189.11-54.17-31.4-83.05,4.23-126.31,23.59-34.73,15.54-86.31,17.79-99.02,66.06-3.6,13.69,29.72,11.31,40.5,15.55ZM528.4,374.25c1.91-7.44,2.59-14.67,11.74-16.71l-5.05,63.6c44.52-31.07,50.72-87.26,4.73-119.03-48.66,29.05-53.24,76.64-16.06,118.54,7.31-12.53.91-31.89,4.64-46.4ZM460.77,398.57c10.69,13.88,20.86,27.6,30.08,42.53l18.39-2.77c-14.54-34.78-32.51-70.94-62.02-95.07-27.07,32.47-3.64,32.98,13.55,55.31Z"/>
</svg>