<?xml version="1.0" encoding="UTF-8"?>
<svg id="Layer_1" data-name="Layer 1" xmlns="http://www.w3.org/2000/svg" viewBox="0 0 1440 560">
  <defs>
    <style>
      .cls-1 {
        fill: #f9bd21;
      }

      .cls-2 {
        fill: #f7d27f;
      }
    </style>
  </defs>
  <rect class="cls-1" x="1.8" y="-6.33" width="1450.84" height="575.29"/>
  <g>
    <path class="cls-2" d="M316.11,474.73c4.57.97,7.73,4.03,9.76,7.89.73,1.39,1.82,2.75,3.02,3.91,2.88-.57,5.09-1.64,7.65-2.85,6.52-3.06,11.09-1.36,15.03,4.63l3.24,4.91,1.82,2.89c.85,1.34,2.11,3.08,3.79,3.53,1.58.42,3.88-.03,5.3-.86l11.13-6.46c2.84-1.65,6.41-1.75,9.08.07,2.53,1.72,4.19,4.13,5.75,6.66l2.93,4.76c1.1,1.79,2.97,1.93,4.66,1.03l4.96-2.66,8.7-3.92c5.07-2.28,10.46,0,12.84,5.09l3.44,10.58c4.01-4.29,7.83-8.16,13.71-5.94,3.4,1.29,6.56,3.48,8.64,6.56,3.93,5.8,6.01,12.55,6.01,19.58,0,7.6-1.58,14.82-4.63,21.73-2.39,5.39-6.59,9.49-12.2,11.26-5.23,1.65-10.55,2.15-16.09,1.6-10.61-1.05-20.68-3.38-30.88-6.99-27.95-9.87-55.33-20.22-82.76-31.31-7.73-3.12-16.52-7.67-17.31-16.18-.72-7.83,1.08-15.58,4.7-22.63,2.38-4.63,5.28-8.62,8.2-12.88,2.11-3.07,5.5-4.87,9.51-4.02Z"/>
    <path class="cls-2" d="M821.58,203.59c-9.44,3.16-19.02,6.1-26.78-1.51-5.71-5.6-8.66-13.45-12.68-20.21-6.22-10.44-12.43-20.89-18.65-31.33-3.24-5.45-7.14-10.88-9.24-16.83-4.1-11.6-5.11-24.32-7.67-36.01-2.66-12.1,6.81-23.95,14.96-31.92,9.99-9.79,24.09-14.91,38.03-13.91,7.64.54,13.83,1.98,20.09,6.39,3.29,2.32,6.22,5.43,8.15,8.84,3.77,6.66,10.09,9.84,13.1,17.16,3.43,8.33,7.17,15.59,8.86,24.4,1.16,6.05,2.32,12.1,3.48,18.15,0,0,6.84,36.37,6.84,36.37,1.98,10.39,1.42,23.85-9.9,28.96-9.4,4.24-18.8,8.17-28.58,11.45ZM819.83,97.78l14.7-5.6c-.23-2.6-1.21-4.81-2.74-6.96-5.01-7.08-9.79-14.39-16.6-20.04-9.27-7.69-26.05-5.83-36.57.17-5.48,3.13-10.01,7.35-14.27,11.81-4.05,4.25-5.01,9.49-5.75,15.2-1.2,9.34-2.16,18.38,1,27.67l32.37-11.36,27.86-10.89Z"/>
    <path class="cls-2" d="M1208.52,603.85c-8.4-5.36-16.7-10.95-15.67-21.77.76-7.96,5.02-15.19,7.74-22.56,4.21-11.4,8.43-22.8,12.64-34.2,2.2-5.95,3.97-12.39,7.27-17.76,6.45-10.48,15.7-19.26,23.18-28.61,7.74-9.68,22.91-9.76,34.23-8.44,13.89,1.62,26.74,9.36,34.73,20.83,4.38,6.28,7.15,12,7.66,19.64.26,4.01-.31,8.25-1.75,11.89-2.81,7.12-1.31,14.03-5.11,20.97-4.32,7.9-7.62,15.38-13.41,22.24-3.98,4.71-7.95,9.41-11.93,14.12,0,0-23.98,28.18-23.98,28.18-6.83,8.08-17.66,16.1-28.74,10.51-9.2-4.64-18.17-9.48-26.87-15.03ZM1289.71,535.97l13.6,7.91c1.88-1.82,2.97-3.97,3.69-6.51,2.35-8.34,5.04-16.66,5.15-25.51.15-12.04-11.84-23.92-23.13-28.33-5.88-2.29-12.01-3.17-18.16-3.67-5.85-.48-10.53,2.07-15.43,5.09-8.02,4.94-15.65,9.88-20.89,18.17l29.18,18.04,25.98,14.82Z"/>
    <path class="cls-2" d="M154.12,220.15l-2.97-17.98c-.71-4.28-2.59-7.8-4.82-11.48-2.3-3.79-6.36-6.25-11.14-5.08-5.17,1.26-10.21,3.43-15.07,5.8-3.5,1.7-6.57,3.89-9.63,6.21-1.84,1.4-3.87,1.28-5.68-.45-2.99-2.87-3.64-8.44-.51-11.64,4.18-4.28,11.97-6.22,10.29-13.56-2.99-13.05-8.82-23.92-10.11-39.26-.38-4.55.56-9.09,2.41-13.16,1.61-3.54,4.37-6.19,7.97-7.51,9.9-3.62,17.85,9.51,17.89,16.78l.07,13.11c.04,6.96-1.19,13.66-2,20.58-.29,2.49-.58,4.83,0,7.46,6.12-2.32,9.94-7.37,12.26-13.12,6.59-16.37,18.43-32.75,29.81-46.29l5.26-5.5,6.4-6.23,8.78-7.11c11.02-8.93,28.99-17.09,43.32-16.63,6.26.2,12.23,2.05,17.02,5.85,6.84,5.41,8.84,14.37,4.9,22.19-3.44,6.82-8.6,12.35-14.99,16.65-7.43,5.01-15.15,8.98-23.6,12.08l-33.05,12.12c-8.31,3.05-17.94,6.88-22.66,14.66,1.71.59,2.98.38,4.61-.23,20.01-7.46,40.84-12,62.3-12.86,10.99-.44,24.72,2.26,32.82,9.45,12.08,10.71,12.66,28.61,1.07,39.89-6.92,6.74-16.4,9.95-26.38,9.19-10.51-.81-20.44-3.77-30.21-7.73l-18.18-8.38c-10.57-4.87-17.18-8.54-29.36-9.89-1.43-.16-2.77-.13-4.06.61,7.71,5.11,15.34,9.08,23.55,12.8,8.72,3.94,16.52,8.85,23.52,15.33,5.57,5.16,9.95,11.09,12.07,18.43,1.7,5.87,1.9,11.96.14,17.79-1.66,5.5-5.28,9.78-9.92,13.04-11.38,7.99-26.32,8.13-37.62-.13-6.63-4.84-10.67-12.05-12.39-20.09-1.12-5.25-1.26-10.4-2.13-15.7Z"/>
    <path class="cls-2" d="M813.44,455.29c-5.58-2.79-5.37-10.62-2.42-16.41,2.8-5.51,7.58-9.15,12.69-12.37l7.85-4.95,2.74-2.81c.88-.9,1.1-2.24.35-3.31-1.12-1.59-2.41-3.29-4.07-4.42-2.57-1.74-5.31-3.27-8.33-4.12-1.51-.43-3.71,1.2-4.47,2.48-2.16,3.63-3.22,7.55-4.88,11.42l-2.37,5.54c-2.15,5.03-5.94,8.38-10.86,10.51-6.68,2.9-14.09,1.52-18.9-4.07-5.93-6.89-3.47-17.06,2.53-23.77l2.52-2.54,2.95-2.4c3.77-3.06,8.31-4.78,12.84-6.56,1.71-.68,3.32-1.3,4.58-2.77-2.41-2.34-5.57-3.96-8.93-3.66l-11.72,1.06c-5.44.49-10.69-.1-15.46-2.71-3.72-2.04-5.53-5.89-5-10.08.39-3.07,1.6-5.7,3.8-7.92,6.37-6.4,15.78-5.56,22.56.39,2.44,2.15,4.19,4.79,6.09,7.46,2.7,3.79,6.06,6.94,10.34,8.97.92-1.18,1.03-2.49.74-3.79l-2.49-11.07c-1.07-4.77-1.2-9.51.45-14.06,1.6-4.4,4.58-7.77,8.69-10.01,6.65-3.62,13.97.52,16.94,7.6,2.69,6.4,2.39,13.51-.4,19.86-1.63,3.71-3.87,6.74-6.45,9.82l-3.96,5.36c-1.23,1.66-.72,4.12,1.17,5.24l10.71,6.32c.52.3,1.52.43,2.12.28.52-.13,1.08-.89,1.34-1.59.95-2.59.89-5.25.51-8.01l-1.63-11.97c-.42-3.09-.12-6.1.93-8.95,1.7-4.63,6-7.81,10.98-7.42,2.99.23,5.46,2.13,7.23,4.45,1.76,2.29,2.59,4.99,3.09,7.85,1.01,5.82.17,11.56-2.03,17.02l-2.31,4.64c-1.48,2.97-4.84,8.35-3.27,11.23,2.41,4.41,5.98,7.98,10.35,10.42l12.99,7.26c1.68.94,3.02,2.48,3.23,4.44.47,4.21-2.58,8.8-5.17,8.62-2.27-.16-4.07-1.38-5.47-2.99l-3.85-4.42c-3.77-4.33-6.56-6.06-11.67-8.59-1.18-.59-2.14-.69-3.17.31-1.37,1.33-2.45,2.93-3.18,4.8l-3.72,9.57c-1.41,3.62-3.57,6.7-6.2,9.53-5.38,5.77-13.76,8.91-20.99,5.29Z"/>
    <path class="cls-2" d="M50.23,72.72c-5.58-2.79-5.37-10.62-2.42-16.41,2.8-5.51,7.58-9.15,12.69-12.37l7.85-4.95,2.74-2.81c.88-.9,1.1-2.24.35-3.31-1.12-1.59-2.41-3.29-4.07-4.42-2.57-1.74-5.31-3.27-8.33-4.12-1.51-.43-3.71,1.2-4.47,2.48-2.16,3.63-3.22,7.55-4.88,11.42l-2.37,5.54c-2.15,5.03-5.94,8.38-10.86,10.51-6.68,2.9-14.09,1.52-18.9-4.07-5.93-6.89-3.47-17.06,2.53-23.77l2.52-2.54,2.95-2.4c3.77-3.06,8.31-4.78,12.84-6.56,1.71-.68,3.32-1.3,4.58-2.77-2.41-2.34-5.57-3.96-8.93-3.66l-11.72,1.06c-5.44.49-10.69-.1-15.46-2.71C3.17,4.83,1.36.98,1.89-3.22c.39-3.07,1.6-5.7,3.8-7.92,6.37-6.4,15.78-5.56,22.56.39,2.44,2.15,4.19,4.79,6.09,7.46,2.7,3.79,6.06,6.94,10.34,8.97.92-1.18,1.03-2.49.74-3.79l-2.49-11.07c-1.07-4.77-1.2-9.51.45-14.06,1.6-4.4,4.58-7.77,8.69-10.01,6.65-3.62,13.97.52,16.94,7.6,2.69,6.4,2.39,13.51-.4,19.86-1.63,3.71-3.87,6.74-6.45,9.82l-3.96,5.36c-1.23,1.66-.72,4.12,1.17,5.24l10.71,6.32c.52.3,1.52.43,2.12.28.52-.13,1.08-.89,1.34-1.59.95-2.59.89-5.25.51-8.01l-1.63-11.97c-.42-3.09-.12-6.1.93-8.95,1.7-4.63,6-7.81,10.98-7.42,2.99.23,5.46,2.13,7.23,4.45,1.76,2.29,2.59,4.99,3.09,7.85,1.01,5.82.17,11.56-2.03,17.02l-2.31,4.64c-1.48,2.97-4.84,8.35-3.27,11.23,2.41,4.41,5.98,7.98,10.35,10.42l12.99,7.26c1.68.94,3.02,2.48,3.23,4.44.47,4.21-2.58,8.8-5.17,8.62-2.27-.16-4.07-1.38-5.47-2.99l-3.85-4.42c-3.77-4.33-6.56-6.06-11.67-8.59-1.18-.59-2.14-.69-3.17.31-1.37,1.33-2.45,2.93-3.18,4.8l-3.72,9.57c-1.41,3.62-3.57,6.7-6.2,9.53-5.38,5.77-13.76,8.91-20.99,5.29Z"/>
    <path class="cls-2" d="M449.23,433.34c.65-2.18.67-4.13.59-6.65-5.98.45-10.04,3.97-17.44,4.85-6,.71-11.67-1.31-15.68-5.72-4.76-5.22-7.16-12.52-4.6-19.33,2.35-6.25,8.96-9.64,15.5-9.41,7.12.25,13.13,3.27,18.65,7.55l6.17,4.79c.32.25,1.23.51,1.53.43,1.58-.41,4.06-8.23,4.94-12.06l5.91-25.75,1.21-11.74c.06-.6-1.24-1.42-1.8-1.27l-14.96,3.78-11.17,1.97c-5.59.99-11.23.12-16.69-1.52-8.13-2.44-14.46-8.42-17.34-16.34-2.65-7.28-2.24-15.01,1.67-21.63,4.3-7.27,12.24-10.9,20.66-9.29,4.84.93,9.34,3.32,13.15,6.56l7.13,7.14,11.05,11.12c4.45,4.48,12.12,7.1,15.05,1.88,2.87-5.1,3.73-10.67,4.56-16.49l2.18-15.17c.28-1.95,1.87-4.15,4.03-4.27,3.44-.19,6.73.73,9.93,1.89,2.04.74,3.46,2.92,2.73,5.2l-4.29,13.49-4.22,13.57,10.38-1.87c10.06-1.81,19.33-2.9,28.3,2.94,5.44,3.54,8.76,9.69,8.25,16.24-.62,8.1-6.49,14.35-14.25,16.26-6.18,1.52-12.38.92-18.37-1.48l-18.22-8.7c-.75-.36-2.39-.69-2.74.07-1.2,2.59-1.84,4.88-2.47,7.62l-7.7,33.15,7.34-2.74c8.8-2.27,18.21.81,23.41,8.25,4.32,6.18,4.1,14.55-1.61,19.51-9.45,8.2-21.81,7.47-32.33.99l-4.87-2.43-.84,9.52c-.64,7.16-1.6,14-3.01,21.06-.64,3.21-1.62,6.4-4.66,8.07-2.54,1.4-5.4.58-7.84-.69-3.25-1.68-5.61-4.83-4.53-8.56l2.3-7.96,5-16.82Z"/>
    <path class="cls-2" d="M133.69,354.38c-1.94,3.13-5.46,4.46-8.73,4.36-3.68-.11-6.54-2.01-8.54-5.1-2.47-3.82-7.02-5.24-11.24-4.26-3.74.87-7.01-.68-9.28-2.94-2.69-2.67-3.19-6.25-2.44-9.9.95-4.65-1.72-8.77-5.56-11.18-2.79-1.75-3.88-5.19-3.88-8.23,0-3.19,1.55-6.27,4.46-8.16,4.07-2.64,5.97-7.14,4.85-11.96-.78-3.35.61-6.78,2.89-9.04,2.42-2.4,6.04-3.32,9.44-2.57,4.85,1.07,8.94-1.31,11.51-5.17,1.9-2.85,4.96-4.13,8-4.2,3.21-.07,6.43,1.28,8.36,4.18,2.51,3.78,6.44,6.24,11.2,5.22,3.46-.74,6.96-.04,9.59,2.36,2.34,2.13,3.83,5.83,3.05,9.23-1.16,5.06.84,9.46,5.09,12.14,3.15,1.98,4.36,5.6,4.2,9.04s-2.33,6.34-5.42,8.38c-3.68,2.43-4.75,6.87-3.88,10.95.76,3.59-.56,6.89-2.99,9.29-2.44,2.41-5.93,3.33-9.52,2.53-4.48-1-8.72,1.07-11.18,5.03Z"/>
    <path class="cls-2" d="M1390.31,193.79c-1.2,1.93-3.37,2.75-5.39,2.69-2.27-.07-4.03-1.24-5.27-3.15-1.53-2.36-4.33-3.23-6.94-2.63-2.31.54-4.33-.42-5.73-1.81-1.66-1.65-1.97-3.86-1.51-6.11.59-2.87-1.06-5.41-3.43-6.9-1.72-1.08-2.4-3.2-2.39-5.08,0-1.97.95-3.87,2.75-5.03,2.51-1.63,3.68-4.41,2.99-7.38-.48-2.07.38-4.18,1.78-5.58,1.49-1.48,3.73-2.05,5.83-1.58,3,.66,5.52-.81,7.1-3.19,1.17-1.76,3.06-2.55,4.94-2.59,1.98-.05,3.97.79,5.16,2.58,1.55,2.33,3.98,3.85,6.91,3.22,2.13-.46,4.29-.03,5.92,1.45,1.45,1.31,2.36,3.6,1.88,5.69-.72,3.12.52,5.84,3.14,7.49,1.94,1.22,2.69,3.46,2.59,5.58s-1.44,3.91-3.35,5.17c-2.27,1.5-2.93,4.24-2.39,6.76.47,2.21-.34,4.25-1.85,5.73s-3.66,2.06-5.87,1.56c-2.77-.62-5.38.66-6.9,3.1Z"/>
    <path class="cls-2" d="M1280.05,100.3c-6.72-7.91-11.17-17.2-13.48-27.16-1.65-7.13,1.02-14.12,6.3-18.88,4.33-3.9,9.06-6.87,13.94-10l7.73-4.96c4.77-3.06.06-7.42.5-11.15.28-2.42,2.18-3.77,4.01-4.21,4.29-1.02,4.73,4.92,8.85,6.78l11.53-5.17c9.16-4.11,21.75-8.74,30.05-3.11,10.52,7.13,16.57,29.3,18.67,42.39,1.38,8.61.74,18.53-6.35,23.59-5.11,3.64-10.74,6.05-16.65,8.3l-25.43,9.68c-5.39,2.05-10.9,3.12-16.62,3.45-8.9.52-17.12-2.57-23.06-9.57Z"/>
    <path class="cls-2" d="M573.94,369l.21.6-.3-.59s.05-.03.09-.01h0Z"/>
    <path class="cls-2" d="M621.61,319.13c10.52,1.85,18.92,9.94,26.23,17.17,12.14,12.03,25.95,22.86,38.88,34.07,10.1,8.76,37.24,24.15,21.24,39.09-11.22,10.48-22.45,20.95-33.67,31.43-10.75,10.04-32.77,39.77-47.01,20.89-11.26-14.93-21.29-30.93-33.64-44.72-2.38-2.66-4.45-5.59-6.51-8.5-11.17-15.79-26.63-27.33-18.98-48.23,2.68-7.33,11.66-13.11,17.39-18.47,6.07-5.67,12.13-11.37,18.22-17.02,2.74-2.54,4.76-5.06,8.46-5.69,3.37-.57,6.49-.53,9.41-.02Z"/>
    <path class="cls-2" d="M690.1,284.16c2.46.67,4.37,1.68,5.35,3.19,5.12,7.91-7.15,15.24-10.73,19.75-3.1,3.9-4.23,9.63-4.5,14.45-.67,11.62,3.39,22.88,4.75,34.29,0,0-28.52-24.76-28.69-24.91-.9-.78,3.05-14.77,2.56-17.46-.97-5.35-4.89-7.75-8.67-11.04-4.74-4.12-7.75-14.95-1.08-18.78,2.7-1.55,8.6-.26,11.46-.17,5.68.18,20.97-1.66,29.55.68Z"/>
    <path class="cls-2" d="M558.23,387.54c1.18-.25,2.32.6,3.33,3.02,2.77,6.62-4.89,17.65-4.16,25.65.93,10.1,5.9,19.64,12.76,26.98,6.33,6.78,14.63,12,23.72,14.06,5.39,1.22,17.87-2.4,19.31,4.25,1.94,8.98-16.47,6.6-21.65,5.41-6.63-1.52-12.89-4.42-18.49-8.27-14.62-10.04-25.59-27.74-25.58-45.83,0-3.54,5.75-24.24,10.75-25.28Z"/>
    <path class="cls-2" d="M670.62,245.79c-.28-.08-.59-.13-.91-.14-3.55-.13-10.37,2.42-10.83,6.57-.46,4.23-1.45,13.13,4.17,14.64,4.52,1.22,9.61-4.92,11.03-8.56,1.27-3.28.72-11.35-3.47-12.52Z"/>
    <path class="cls-2" d="M687.27,213.29c-1.85-1.54-4.28-2.23-6.68-1.86-2.38.36-4.51,1.73-5.82,3.76-4.73,11.11,2.05,20.54,12.76,10.74,1.79-1.63,2.77-3.96,2.72-6.38s-1.14-4.7-2.98-6.26Z"/>
    <path class="cls-2" d="M702.13,256.18c-3.17-1.55-7.36-2.01-9.61-.86-5.22,2.66-5.89,11.86.16,13.81,4.32,1.39,13.35-2.37,13.63-7.62.12-2.27-1.73-4.12-4.18-5.32Z"/>
    <path class="cls-2" d="M745.89,240.24c-.55-2.36-2.07-4.38-4.19-5.53-12.44-6.77-22.07,17.58-3.26,15.75,2.41-.23,4.6-1.48,6.02-3.44,1.43-1.95,1.95-4.43,1.43-6.78Z"/>
    <path class="cls-2" d="M721.96,219.54c-1.39-1.98-3.57-3.27-5.97-3.53-2.39-.27-4.8.5-6.59,2.14-3.17,4.07-8.09,9.61-3.31,14.15,3.6,3.41,9.08,1.5,12.87-.49,2.14-1.12,3.7-3.12,4.27-5.46.58-2.35.11-4.84-1.27-6.82Z"/>
    <path class="cls-2" d="M1394.29,267.14c2.68-.9,4.92.05,7.64.76,6.06,1.58,12.11,3.21,18.16,4.81,5.71,1.51,13.73,2.16,18.12,6.07,12.52,11.15,6.36,24.32,4.58,38.78-.33,2.67-.66,5.35-1.3,7.96-3.29,13.55-4.25,27.74-6.41,41.66-2.73,17.6-27.93,5.71-38.64,2.88-11.18-2.96-22.36-5.91-33.54-8.87-15.94-4.21-3.41-24.1.18-33.51,4.59-12.05,9.9-24.15,13.68-36.46,2.27-7.41,4.97-15.77,11.29-20.74,1.76-1.38,3.81-2.52,6.25-3.34Z"/>
    <path class="cls-2" d="M1349.5,260.68c1.87-1.08,5.33-4.04,7.67-3.97,5.79.17,7.65,8.43,5.97,12.85-1.34,3.53-3.08,6.51-1.82,10.41.63,1.96,8.24,9.84,7.92,10.68-.06.16-10.18,26.75-10.18,26.75-3.16-8.06-4.48-16.98-9.06-24.45-1.9-3.1-4.69-6.5-8.13-7.99-3.98-1.72-14.74-2.22-14.15-9.29.11-1.35,1.02-2.7,2.41-4.02,4.87-4.61,15.67-8.83,19.37-10.97Z"/>
    <path class="cls-2" d="M1331.55,248.8c2.24,1.92,7.8,4.18,10.37,1.76,3.2-3.01-.63-8.56-2.44-11.21-1.78-2.6-7.22-1.86-9.53-.51-.21.12-.39.26-.55.41-2.36,2.26.15,7.82,2.16,9.54Z"/>
    <path class="cls-2" d="M1307.01,228.83c.83,1.62,2.31,2.82,4.08,3.27,10.59,2.69,11.74-5.98,4.64-11.67-1.59-.88-3.49-1.03-5.2-.42-1.72.61-3.09,1.93-3.77,3.61-.67,1.7-.58,3.6.25,5.22Z"/>
    <path class="cls-2" d="M1311.29,262.39c2.06,3.39,9.39,2.67,11.76.21,3.33-3.45-.4-9.31-4.81-9.22-1.9.04-4.52,1.84-6.07,4-1.2,1.67-1.77,3.56-.88,5.02Z"/>
    <path class="cls-2" d="M1280.81,266.36c1.64.79,3.54.84,5.22.14,13.14-5.49-1.92-18.22-7.77-9.3-1,1.52-1.29,3.41-.81,5.17.49,1.75,1.72,3.21,3.36,3.99Z"/>
    <path class="cls-2" d="M1287.55,245.09c1.22,1.35,2.96,2.12,4.78,2.1,3.22-.03,7.55-.72,8.72-4.26,1.56-4.71-3.68-6.64-7.24-8.21-1.77-.45-3.65-.11-5.14.93-1.5,1.03-2.49,2.66-2.71,4.47-.21,1.8.36,3.62,1.59,4.98Z"/>
    <path class="cls-2" d="M338.78,155.7c-3.5,2.61-6.62,6.67-7.87,10.43-1.25,3.77-1.46,8.14-.37,13.06-6.85-.36-14.36,1.28-20.23,4.92-7.13,4.42.19,6.4,4.33,9.01,3.21,2.03,6.23,4.35,9.02,6.93,6.69,6.19,11.98,13.85,15.26,22.37,3.18,8.26,4.46,17.1,3.7,25.91-.38,4.45-6.04,15.43-3.06,19.35,2.21,2.91,10.44.42,13.3-.62,4.94-1.79,9.44-4.95,12.5-9.25,5.78.96,11.73-.17,16.91-2.85,3.3-1.7,7.5-4.02,8.02-8.16.54-4.32-5.42-6.01-8.72-8.35-8.97-6.38-16.31-14.76-20.86-24.83-6.26-13.83-5.95-27.51-2.56-41.91,1.47-6.25-5.32-5.46-9.67-3.48-4.45,2.02-8.44,5.43-11.82,8.92-.66-3.53-.5-6.13.4-8.89.9-2.76,3.16-5.6,6.09-8.41-1.18-2.35-2.77-3.71-4.38-4.15,2.05.46,2.47,2.26,3.71,3.95"/>
    <path class="cls-2" d="M1143.03,94.36c-4.19,5.51-7.17,13.04-7.42,19.32-.25,6.28,1.33,13.04,5.14,20.04-10.58,2.45-21.31,8.22-28.66,16.32-8.93,9.84,3.09,9.66,10.53,11.83,5.77,1.69,11.39,3.91,16.75,6.61,12.9,6.5,24.29,15.85,32.99,27.39,8.44,11.18,14.25,24.08,16.95,37.84,1.36,6.94-2.46,26.12,3.79,30.79,4.64,3.47,16.08-3.92,19.98-6.75,6.74-4.89,12.21-11.65,15-19.54,9.22-1.06,17.79-5.38,24.51-11.72,4.28-4.04,9.67-9.4,8.65-15.93-1.06-6.82-10.88-6.77-16.93-8.9-16.44-5.79-31.27-15.36-42.6-28.69-15.57-18.32-21.07-39.28-22.2-62.69-.49-10.16-10.48-5.99-16.25-1.07-5.89,5.02-10.48,11.95-14.1,18.73-2.54-5.08-3.44-9.11-3.27-13.72.17-4.6,2.37-9.91,5.59-15.47-2.82-3.07-5.84-4.43-8.47-4.4,3.32-.19,4.75,2.36,7.37,4.4"/>
    <path class="cls-2" d="M-21.98,152.92c-1.87,3.95-2.71,9-2.04,12.91.67,3.91,2.53,7.88,5.81,11.7-6.21,2.9-12.08,7.88-15.55,13.84-4.22,7.25,3.18,5.56,8.06,5.92,3.78.28,7.54.92,11.21,1.88,8.82,2.32,17.08,6.6,23.97,12.58,6.68,5.8,11.97,13,15.44,21.14,1.75,4.11,1.92,16.45,6.39,18.52,3.32,1.53,9.41-4.53,11.45-6.79,3.52-3.9,6.01-8.8,6.69-14.04,5.55-1.87,10.28-5.66,13.59-10.46,2.11-3.06,4.73-7.08,3.25-10.98-1.55-4.07-7.61-2.75-11.63-3.27-10.91-1.41-21.33-5.37-30.08-12.12-12.02-9.27-18.18-21.49-21.95-35.79-1.64-6.21-7.26-2.32-10.17,1.47-2.98,3.87-4.9,8.76-6.24,13.42-2.24-2.8-3.32-5.18-3.82-8.04-.5-2.86.16-6.43,1.42-10.29-2.15-1.53-4.19-1.97-5.81-1.61,2.03-.56,3.24.83,5.13,1.75"/>
    <path class="cls-2" d="M306.09,406.44c-.18-2.59-.33-5.26.17-7.82,3.7-19.07,20.92-33.23,40.34-33.24,3.78,0,9.13,1.19,10.69-3.82,1.55-5.01-3.89-13.84-6.69-17.55-7.54-9.98-19.45-15.76-31.94-17.66-7.4-1.13-14.26-2.35-21.26-4.89-2.3-.83-4.08-4.98-4.41-7.22l-1.82-12c-.23-1.55-1.55-4.22-3.42-4.12-2.92.15-5.08,1.68-7.63,3.18-1.67.98-4.49.2-6.56.62-2.39.48-3.8,3.96-4.91,6.14l-4.26-.67c-1.12-.18-3.06.93-3.5,2.02-.39.95-.13,3.27.77,3.9l5.09,3.59c3.05,2.15,4.13,8.63,1.43,11.35l-7.69,7.76-7.47,6.18-6.78,6.87c-5.39,5.46-9.37,11.7-12.91,18.83-4.69,9.45-5.13,19.72-.64,28.98,2.89,5.95,6.34,11.63,11.74,15.52,10.15,7.31,22.03,9.37,34.38,9.72,6.75.2,14.99,1.45,21.52-1.34,6.73-2.88,6.17-8.4,5.77-14.34Z"/>
    <path class="cls-2" d="M1039.4,64.55c-.18-2.59-.33-5.26.17-7.82,3.7-19.07,20.92-33.23,40.34-33.24,3.78,0,9.13,1.19,10.69-3.82,1.55-5.01-3.89-13.84-6.69-17.55-7.54-9.98-19.45-15.76-31.94-17.66-7.4-1.13-14.26-2.35-21.26-4.89-2.3-.83-4.08-4.98-4.41-7.22l-1.82-12c-.23-1.55-1.55-4.22-3.42-4.12-2.92.15-5.08,1.68-7.63,3.18-1.67.98-4.49.2-6.56.62-2.39.48-3.8,3.96-4.91,6.14l-4.26-.67c-1.12-.18-3.06.93-3.5,2.02-.39.95-.13,3.27.77,3.9l5.09,3.59c3.05,2.15,4.13,8.63,1.43,11.35l-7.69,7.76-7.47,6.18-6.78,6.87c-5.39,5.46-9.37,11.7-12.91,18.83-4.69,9.45-5.13,19.72-.64,28.98,2.89,5.95,6.34,11.63,11.74,15.52,10.15,7.31,22.03,9.37,34.38,9.72,6.75.2,14.99,1.45,21.52-1.34,6.73-2.88,6.17-8.4,5.77-14.34Z"/>
    <path class="cls-2" d="M543.37,106.13c-.16.46-.45.94-.86,1.42-4.12,4.77-14.38,4.43-20.02,5.77-19.16,4.56-38.33,9.12-57.49,13.68-9.33,2.22-19.26,3.75-28.26,7.02-6.71,2.43-8.7-.73-4.98-7.17,1.75-3.02,3.96-5.76,6.55-8.1s5.69-4.72,8.92-5.81c3.49-1.17,5.03-.44,7.1-3.63,1.74-2.69,2.5-6.28,4.89-9.13,5.25-6.25,12.45-10.69,20.38-12.58,7.18-1.71,14.79-1.31,21.74,1.19,3.71,1.33,6.59,4.05,10.1,5.72,4.36,2.07,7.6.87,12.23,1.16,4.71.29,21.8,4.57,19.7,10.47ZM600.37,244.85c-3.3,7.45-17.83,3.5-23.51,3.26-4.43-.19-7.02,1.95-11.28,2.78-5.01.98-10.16-.43-15.16.85-9.98,2.55-19.62,6.34-29.69,8.74-17.01,4.05-34.72,4.09-50.61,11.24-3.37,1.52-5.93,3.83-9.16,5.9-4.02,2.59-13.51,8.76-18.37,4.79-3.62-2.95-2.91-10.87,1.65-20.78,1.82-3.93,1.6-8.5-.6-12.29-7.07-12.16-12.08-25.29-15.32-38.96-2.61-11.01-8.74-26.31-3.19-37.29,2.64-5.24,9.37-5.32,14.72-6.59,17.21-4.1,34.42-8.19,51.64-12.29,13.39-3.19,26.77-6.37,40.16-9.56,7.61-1.81,14.81-5.12,22.58-6.34,10.94-1.72,14.89,1.32,18.75,11.3,8.13,21.04,13,43.53,11.67,66.17-.26,4.37,1.55,8.56,4.94,11.25,8.54,6.79,12.79,13.52,10.79,17.82ZM558.14,110.22c-27.99,7-57.23,11.52-84.63,20.03-4.45,1.38-8.91,2.77-13.25,4.49-9.28,3.69-17.33,2.9-26.66,5.12-4.64,1.1-9.27,2.21-13.91,3.31-5.97,1.42-9.66,7.39-8.25,13.33s7.4,9.6,13.37,8.18c31.62-7.53,63.24-15.05,94.86-22.58,8.02-1.91,16.04-3.82,24.06-5.73,9.27-2.21,31.35-2.9,27.76-17.97-1.41-5.94-7.4-9.6-13.36-8.19Z"/>
    <path class="cls-2" d="M682,85.95c-2.17-.48-4.38-.17-6.58,1.3-1.93,1.29-3.61,3.61-5.25,5.25-2.88,2.88-5.87,7.94-10.6,3.94-3.56-3-6.84-6.31-10.13-9.6-10.13-10.13-20.26-20.26-30.39-30.39-1.47-1.47-3.49-2.96-4.67-4.67-1.67-2.42-1.19-4.4-1.32-7.41-.24-5.46-1.68-15.58-9.56-12.72-5.38,1.96-8.65,7.81-12.52,11.68-3.57,3.57-7.15,7.15-10.72,10.72-1.02,1.02-1.02,2.66,0,3.68,3.66,3.66,8.51,5.67,13.68,5.67,4.76,0,6-.69,9.29,2.65,1.89,1.92,3.81,3.81,5.72,5.72,5.24,5.24,10.48,10.48,15.72,15.72,4.77,4.77,9.54,9.54,14.32,14.32,2.29,2.29,5.26,4.55,7.17,7.17,3.88,5.32-.58,8.13-4.2,11.75-1.65,1.65-4.72,3.73-5.74,5.84-4.31,8.94,9.83,18.1,15.28,23.55,6.48,6.48,15.09,10.05,24.26,10.05,4.57,0,9.03-.89,13.13-2.58,4.13-1.72,7.88-4.23,11.12-7.47,8.58-8.58,11.68-21.44,8.87-33.23-1.37-5.74-4.73-11.13-8.87-15.28-4.4-4.41-10.98-14.12-17.99-15.66Z"/>
    <path class="cls-2" d="M1325.1,453.14c1.46.92,3.16,1.29,5.16.79,1.75-.44,3.6-1.69,5.24-2.46,2.87-1.35,6.4-4.26,8.81-.08,1.81,3.14,3.34,6.43,4.88,9.71,4.74,10.1,9.48,20.19,14.22,30.29.69,1.47,1.77,3.09,2.19,4.66.58,2.22-.29,3.54-.99,5.78-1.27,4.07-2.89,11.85,3.64,11.84,4.46-.01,8.4-3.43,12.26-5.24,3.56-1.67,7.12-3.34,10.69-5.02,1.01-.48,1.45-1.68.97-2.7-1.71-3.64-4.73-6.4-8.52-7.77-3.49-1.26-4.58-1.08-6.1-4.4-.87-1.91-1.78-3.8-2.67-5.7-2.45-5.22-4.9-10.44-7.35-15.67-2.23-4.76-4.46-9.51-6.7-14.27-1.07-2.29-2.65-4.72-3.36-7.14-1.44-4.92,2.58-5.8,6.18-7.49,1.65-.77,4.44-1.48,5.75-2.76,5.52-5.41-2.41-15.85-4.96-21.28-3.03-6.45-8.39-11.35-15.1-13.78-3.35-1.21-6.85-1.74-10.3-1.58-3.48.17-6.89,1.01-10.12,2.53-8.55,4.01-14.22,12.61-15.28,21.99-.52,4.56.52,9.41,2.45,13.53,2.06,4.39,4.3,13.24,9.03,16.23Z"/>
    <path class="cls-2" d="M237.94,448.16c-1.02-.88-2.19-1.64-3.34-2.39-8.55-5.62-16.87-11.66-25.33-17.57-2.21-1.52-4.99-1.68-7.35-.47-2.36,1.21-3.83,3.62-3.83,6.3,0,3.7.61,7.94,0,11.57-.52,3.05-1.23,2.74-4.4,2.27-5.28-.79-4.85-1.84-6.23-6.81-1.12-4.07-2.95-8.02-5.29-11.34l-1.26-1.79c-1.26-1.73-3.68-2.1-5.41-.89-1.73,1.26-2.15,3.68-.89,5.41,0,0,1.26,1.79,1.26,1.79,1.97,2.79,7.1,10.88.09,10.31-1.59-.13-3.1-.89-4.69-1.08-3.45-.41-3.82-.72-5.09-4.01-1.77-4.57-2.65-9.62-5.44-13.57,0,0-1.26-1.79-1.26-1.79-1.26-1.73-3.68-2.15-5.41-.89s-2.1,3.68-.89,5.41l1.26,1.79c1.81,2.56,4.79,7.13,4.59,10.44-.17,2.81-1.68,1.89-4.46,1.91-2.75.02-5.51-.07-8.26-.09-2.22-.02-2.52.64-3.71-1.37-.89-1.5-.39-3.94-.92-5.61-1.11-3.49-2.77-6.8-4.89-9.79l-1.26-1.79c-1.26-1.73-3.68-2.15-5.41-.89-1.73,1.26-2.15,3.68-.89,5.41,0,0,1.26,1.79,1.26,1.79,1.66,2.3,6.1,9.36,4.91,12.39-1.1,2.83-7.74,2.58-10.39,3.13-3.15.66-6.3,2.78-9.49,3.04-5.98.48-13.6-5.16-18.91-7.48-4.32-1.89-8.65-3.76-12.97-5.65-3.59-1.57-7.19-3.13-10.78-4.69-1.52-.63-3.31-.26-4.41.95-1.1,1.26-1.31,3.05-.47,4.52,1.81,3.16,3.62,6.33,5.43,9.49,1.41,2.46,2.81,4.91,4.22,7.37,1.88,3.28,3.35,6.23,2.97,9.95-.31,3.05-.71,6.1-1.07,9.15-.51,4.35-.98,8.71-1.52,13.05-.36,2.87,3.24,4.28,5.73,3.49,3.22-1.02,7.03-6.59,9.17-9.15,2.3-2.76,3.79-5.17,6.59-7.35,5.28-4.11,8.72-9.97,13.96-14.03,4.14-3.21,7.97-4.07,13-5.15,2.72-.58,7.95-3.34,8.32.05.35,3.13-3.53,8.28-5.4,10.5-1.37,1.63-1.16,4.1.53,5.46.74.58,1.58.89,2.47.89,1.1,0,2.21-.47,2.99-1.42,2.61-3.17,4.77-6.88,6.02-10.81,1.16-3.64-.65-6.65,3.7-7.47,1.31-.25,14.15.05,14.18-.17-.74,4.89-2.63,9.56-5.94,13.55-1.37,1.63-1.1,4.1.53,5.46.74.58,1.58.89,2.47.89,1.1,0,2.21-.47,2.99-1.42,3.58-4.31,6.22-9.41,7.28-14.93.74-3.89,1.2-3.26,5.28-2.76,1.74.21,3.47.45,5.21.71,7.88,1.17.68,12.23-2.32,15.88-1.37,1.63-1.1,4.1.53,5.46.74.58,1.58.89,2.47.89,1.1,0,2.21-.47,2.99-1.42,3.71-4.49,5.33-9.94,7.76-15.12,1.39-2.97,1.74-2.88,4.82-1.79,1.56.55,4.51,1.35,5.01,3.22,1.11,4.16-.2,10.58-.2,15,0,2.16,1.24,5.34,3.56,5.83,8.12,1.72,14.93-5.19,21.16-9.55,5.01-3.51,10.03-7.01,15.04-10.52,1.89-1.31,3.05-3.52,3.05-5.83,0-2.61-1.29-4.4-3-5.88Z"/>
    <path class="cls-2" d="M1034.43,587.95c.18-1.33.19-2.73.2-4.11.09-10.23.67-20.5,1.06-30.81.09-2.68-1.29-5.11-3.59-6.44-2.3-1.33-5.12-1.26-7.38.19-3.11,2.01-6.34,4.82-9.73,6.27-2.84,1.22-2.97.45-4.29-2.47-2.2-4.86-1.08-5.08,2.36-8.93,2.81-3.15,5.14-6.83,6.66-10.59l.82-2.03c.77-2-.23-4.23-2.18-5.03-2-.77-4.26.18-5.03,2.18,0,0-.82,2.03-.82,2.03-1.28,3.16-5.3,11.86-8.61,5.66-.75-1.41-.93-3.08-1.63-4.52-1.52-3.12-1.46-3.61.61-6.45,2.89-3.96,6.65-7.44,8.46-11.93,0,0,.82-2.03.82-2.03.77-2-.18-4.26-2.18-5.03s-4.23.23-5.03,2.18l-.82,2.03c-1.17,2.91-3.4,7.88-6.29,9.51-2.45,1.38-2.5-.39-4.02-2.72-1.5-2.3-2.92-4.67-4.39-7-1.19-1.87-1.91-1.77-.86-3.86.78-1.56,3.1-2.46,4.22-3.81,2.33-2.82,4.22-6.01,5.58-9.41l.82-2.03c.77-2-.18-4.26-2.18-5.03-2-.77-4.26.18-5.03,2.18,0,0-.82,2.03-.82,2.03-1.03,2.64-4.56,10.19-7.75,10.84-2.98.6-6.36-5.11-8.26-7.03-2.26-2.29-5.75-3.79-7.7-6.33-3.64-4.76-3.03-14.23-3.95-19.95-.75-4.66-1.52-9.31-2.28-13.96-.63-3.87-1.26-7.74-1.89-11.6-.3-1.62-1.57-2.92-3.18-3.2-1.66-.24-3.27.55-4.05,2.05-1.68,3.23-3.36,6.47-5.04,9.7-1.3,2.51-2.61,5.02-3.91,7.53-1.74,3.35-3.42,6.19-6.76,7.89-2.74,1.39-5.51,2.71-8.27,4.06-3.93,1.93-7.85,3.89-11.79,5.79-2.61,1.25-1.84,5.05.17,6.71,2.6,2.15,9.34,2.34,12.66,2.75,3.56.44,6.4.39,9.75,1.56,6.32,2.21,13.1,1.93,19.36,4.14,4.94,1.74,7.74,4.5,11.37,8.14,1.96,1.97,7.11,4.88,4.47,7.02-2.44,1.99-8.87,1.51-11.75,1.15-2.11-.27-4.07,1.25-4.31,3.4-.09.93.1,1.81.59,2.56.6.93,1.59,1.6,2.81,1.75,4.08.47,8.37.28,12.35-.79,3.69-.99,5.24-4.14,8.28-.94.92.97,7.62,11.92,7.82,11.83-4.51,2.03-9.46,2.97-14.61,2.35-2.11-.27-4.04,1.29-4.31,3.4-.09.93.1,1.81.59,2.56.6.93,1.59,1.6,2.81,1.75,5.56.68,11.28.14,16.49-1.97,3.67-1.48,3.39-.75,5.18,2.94.76,1.58,1.5,3.17,2.22,4.76,3.28,7.25-9.91,7.2-14.6,6.65-2.11-.27-4.04,1.29-4.31,3.4-.09.93.1,1.81.59,2.56.6.93,1.59,1.6,2.81,1.75,5.78.69,11.24-.9,16.91-1.67,3.25-.44,3.36-.1,4.11,3.09.38,1.61,1.31,4.53.01,5.96-2.89,3.19-9,5.56-12.72,7.95-1.82,1.17-3.81,3.93-2.97,6.15,2.95,7.76,12.45,9.74,19.49,12.62,5.66,2.32,11.33,4.63,16.99,6.95,2.13.88,4.61.66,6.55-.6,2.2-1.41,3.01-3.47,3.31-5.71Z"/>
    <path class="cls-2" d="M405.14,106.96c-.04-1.34-.27-2.72-.48-4.08-1.61-10.1-2.75-20.33-4.09-30.56-.36-2.66-2.12-4.82-4.61-5.75-2.49-.93-5.26-.39-7.24,1.42-2.74,2.5-5.45,5.8-8.55,7.8-2.6,1.67-2.86.94-4.64-1.72-2.97-4.43-1.91-4.83.84-9.19,2.25-3.57,3.94-7.59,4.81-11.55l.47-2.14c.43-2.1-.93-4.13-2.99-4.6-2.1-.43-4.17.89-4.6,2.99,0,0-.47,2.14-.47,2.14-.73,3.33-3.25,12.58-7.55,7.01-.98-1.26-1.43-2.89-2.36-4.19-2.02-2.83-2.04-3.31-.47-6.46,2.19-4.39,5.32-8.44,6.36-13.17l.47-2.14c.43-2.1-.89-4.17-2.99-4.6s-4.13.93-4.6,2.99l-.47,2.14c-.67,3.06-2.04,8.34-4.62,10.43-2.19,1.77-2.53.03-4.42-2.01-1.87-2.02-3.66-4.12-5.5-6.17-1.48-1.65-2.17-1.43-1.49-3.66.51-1.67,2.65-2.94,3.53-4.46,1.83-3.17,3.16-6.63,3.94-10.21l.47-2.14c.43-2.1-.89-4.17-2.99-4.6s-4.17.89-4.6,2.99c0,0-.47,2.14-.47,2.14-.58,2.77-2.81,10.81-5.84,11.98-2.83,1.09-7.12-3.98-9.31-5.56-2.61-1.88-6.3-2.78-8.64-4.96-4.39-4.09-5.35-13.53-7.22-19.02-1.52-4.47-3.05-8.93-4.57-13.39-1.26-3.71-2.53-7.42-3.8-11.13-.56-1.55-2.04-2.62-3.67-2.62-1.67.03-3.14,1.08-3.66,2.7-1.12,3.47-2.23,6.94-3.35,10.41-.87,2.69-1.73,5.39-2.6,8.08-1.16,3.59-2.35,6.68-5.35,8.9-2.47,1.83-4.99,3.59-7.48,5.38-3.56,2.56-7.09,5.15-10.67,7.67-2.36,1.67-.98,5.28,1.28,6.59,2.93,1.69,9.6.75,12.94.6,3.58-.16,6.37-.68,9.87-.08,6.6,1.13,13.24-.27,19.78.86,5.16.89,8.38,3.15,12.57,6.13,2.26,1.61,7.82,3.62,5.58,6.18-2.08,2.37-8.5,2.97-11.4,3.09-2.12.09-3.81,1.91-3.68,4.07.07.93.4,1.77,1,2.43.74.82,1.84,1.31,3.07,1.26,4.1-.21,8.3-1.12,12.04-2.83,3.47-1.59,4.48-4.96,8.01-2.3,1.07.8,9.5,10.49,9.68,10.37-4.11,2.75-8.83,4.5-14.01,4.75-2.12.09-3.77,1.95-3.68,4.07.07.93.4,1.77,1,2.43.74.82,1.84,1.31,3.07,1.26,5.6-.26,11.14-1.74,15.93-4.68,3.37-2.07,3.22-1.31,5.6,2.04,1.01,1.43,2.01,2.87,2.99,4.32,4.45,6.61-8.58,8.75-13.29,8.99-2.12.09-3.77,1.95-3.68,4.07.07.93.4,1.77,1,2.43.74.82,1.84,1.31,3.07,1.26,5.82-.28,10.93-2.76,16.4-4.46,3.13-.97,3.3-.66,4.57,2.36.64,1.52,2.04,4.25,1,5.87-2.32,3.63-7.95,6.98-11.22,9.96-1.6,1.46-3.11,4.51-1.91,6.56,4.2,7.16,13.9,7.53,21.31,9.2,5.97,1.34,11.94,2.68,17.91,4.03,2.24.51,4.65-.12,6.36-1.68,1.93-1.76,2.39-3.92,2.32-6.18Z"/>
    <path class="cls-2" d="M766.84,541.61c-.7,2.02-2.52,3.23-4.38,3.6-2.1.41-3.96-.29-5.49-1.78-1.89-1.84-4.65-2.06-6.92-.96-2.01.97-4.06.52-5.63-.47-1.87-1.17-2.61-3.13-2.66-5.29-.06-2.76-2.1-4.74-4.59-5.62-1.81-.63-2.87-2.44-3.26-4.16-.41-1.81.07-3.75,1.47-5.2,1.97-2.02,2.46-4.82,1.2-7.4-.87-1.8-.53-3.92.47-5.49,1.06-1.67,2.99-2.66,5.02-2.67,2.89-.02,4.9-1.9,5.85-4.42.71-1.86,2.27-2.98,3.99-3.41,1.81-.46,3.81-.11,5.28,1.29,1.91,1.82,4.45,2.7,7.02,1.51,1.86-.87,3.93-.92,5.74.1,1.6.9,2.92,2.81,2.92,4.83,0,3.01,1.7,5.25,4.45,6.22,2.04.71,3.19,2.61,3.55,4.58.37,2.06-.5,3.89-1.99,5.45-1.77,1.85-1.8,4.51-.78,6.7.89,1.93.57,3.97-.49,5.65-1.07,1.68-2.93,2.65-5.06,2.66-2.67.01-4.8,1.73-5.68,4.29Z"/>
    <path class="cls-2" d="M924.4,156c.75,1.59,2,2.95,3.68,3.79,0,0,7.56,3.82,7.56,3.82-13.75,30.56-27.49,61.13-41.24,91.69-7.71,17.13-24.19,40.98-21.29,60.07,4.21,27.71,32.81,33.99,53.39,44.4,19.66,9.94,58.33,42.97,82.33,31.45,13.19-6.33,23.69-36.44,30.92-49.25,18.4-32.59,36.79-65.19,55.19-97.78l7.56,3.82c4,2.02,8.92.41,10.94-3.59s.41-8.92-3.59-10.94c-8.69-4.39-33.78-11.52-38.43-19.06-7.26-11.79,12.52-23.59,2.6-35.57-3.68-4.44-15.01-7.59-20.08-10.15-14.08-7.12-48.96-34.04-65.12-21.06-4.77,3.83-3.41,13.4-10.35,15.88-9.96,3.56-34.22-13.78-43.05-18.25-4-2.02-8.92-.41-10.95,3.6-.9,1.78-1.1,3.57-.32,5.38,3.74-.02,8.17-1.34,12.19-.92M1000.93,160.13l58.14,29.4-7.35,14.53-58.14-29.4,7.35-14.53ZM945.63,305.56c-2.02,4-6.95,5.61-10.94,3.59s-5.61-6.95-3.59-10.94l36.76-72.67c2.02-4,6.95-5.61,10.94-3.59s5.61,6.95,3.59,10.94l-36.76,72.67ZM989.23,327.62c-2.02,4-6.95,5.61-10.94,3.59-4-2.02-5.61-6.95-3.59-10.94l36.76-72.67c2.02-4,6.95-5.61,10.94-3.59,4,2.02,5.61,6.95,3.59,10.94l-36.76,72.67Z"/>
    <path class="cls-2" d="M1187.63,453.84c-3.55,6.34-3.06,12.64-6.57,20.4-2.47,5.46-6.43,9.97-11.63,12.84-6.88,3.81-16.72,3.06-19.6-4.56-1.54-4.07-1.14-8.43.56-12.42,2.37-5.59,6.4-9.67,10.82-13.69l3.99-3.63,6.91-6.78c.99-.97,1.57-2.84,2.29-4.34-1.45-2.68-3.4-5.07-6.45-6.17-4.04-1.46-8.89,1.44-12.46,4.41l-16.2,13.46c-5.51,4.58-11.79,7.76-18.6,9.88-4.99,1.55-9.89,1.96-15.16,1.36-11.91-1.35-21.53-10.08-24.49-21.61-2-7.78-1.45-15.52,1.71-22.79,2.44-5.61,7.43-9.06,13.63-9.05h5.6c8.24.86,15.99,2.66,23.88,5.12,5.96,1.86,11.67,3.64,17.83,4.63,4.51.72,11.76.53,12.45-1.55s-6.58-6.72-11.87-7.11l-14.63-1.09c-6.5-.49-12.75-1.29-19.02-2.89-5.3-1.35-10.39-2.56-15.43-4.72-6.52-2.79-12.32-7.02-16.85-12.28-3.96-4.6-5.65-9.76-5.36-15.7.28-5.79,2.42-11.26,7.43-14.33,2.23-1.37,4.81-1.71,7.26-.64,3.27,1.43,6.15,3.62,8.58,6.22l3.69,3.95,6,6.43,4.07,4.42c5.2,5.64,14.49,14.74,22.05,14.22-1.46-2.63-3-4.72-4.97-6.47l-10.64-9.42-4.21-3.82-9.23-9.23c-6.36-6.35-12.56-17.37-12.76-26.66-.11-5.32,1.59-10.56,5.67-14.08,1.92-1.65,5.01-1.4,7.13-.22,4.04,2.26,6.95,5.5,9.66,9.21,5.28,7.22,9.55,14.68,13.19,22.91l12.67,28.6c2.17,4.9,8.83,13.84,12.16,11.56,2.27-1.55,3.73-4.33,3.71-7.07l-.11-13.38c-.11-14.44.84-30.38,10.97-41.59,7.52-8.32,19.55-10.8,29.61-6.3,6.96,3.11,12.41,8.26,14.76,15.39,1.73,5.24,1.31,10.44-1.75,15.06-2.08,3.14-4.54,6.07-7.54,8.48l-16.21,13.04c-9.82,7.9-17.49,18.56-18.03,31.4-.04,1.02.4,3.18,1.49,3.37,4.77.84,10.16-.92,13.17-4.77l5.6-8.49c3.52-5.33,7.14-10.32,11.87-14.61,11.9-10.81,23.4-18.27,40.24-17.22,5.87.36,11.07,3.13,15.78,6.65,7.24,5.41,11.12,16.56,5.35,23.78-2.12,2.65-4.47,5.15-7.28,7.16-5.8,4.14-11.88,7.5-18.39,10.47-6.62,3.02-13.34,4.62-20.44,6.09l-12.32,2.55c-5.6,1.16-10.1,3.37-12.21,8.57-1.21,2.99.54,6.17,3.02,8.05l12.78,9.66c2.99,2.26,6.32,3.73,9.77,5.1,3.82,1.52,5.81,4.31,4.33,5.89-1.82,1.95-3.73,3.59-6.03,4.8-1.81.96-4.2-.04-5.61-1.42l-11.73-11.5-4.68-3.45c-.74-.55-2.72-.96-3.21-.09Z"/>
  </g>
</svg>